<?xml version="1.0" encoding="utf-8"?>
<svg version="1.1" xmlns:xlink="http://www.w3.org/1999/xlink" width="424px" height="245px" xmlns="http://www.w3.org/2000/svg">
  <defs>
    <mask fill="white" id="clip255">
      <path d="M 0 234.668079096045  L 0 50.495867768595  C 0 30.5888429752066  11.5 19.9152542372881  21.25 20  L 395.5 20  C 395.5 20  401.454923273737 19.1791928921929  406.5 13.9406779661016  C 411.891474533058 8.34248365757117  414 0.331920903954824  414 0.331920903954824  L 414 184  C 414 195  406.5 204.463276836158  395.5 204  L 27.25 204  C 27.25 204  18.5010912462038 204.560679862786  11.5 211.765536723164  C 2.79960635473379 220.719153900639  0 234.668079096045  0 234.668079096045  Z " fill-rule="evenodd" />
    </mask>
    <filter x="-1px" y="272px" width="424px" height="245px" filterUnits="userSpaceOnUse" id="filter256">
      <feOffset dx="0" dy="2" in="SourceAlpha" result="shadowOffsetInner" />
      <feGaussianBlur stdDeviation="2.5" in="shadowOffsetInner" result="shadowGaussian" />
      <feComposite in2="shadowGaussian" operator="atop" in="SourceAlpha" result="shadowComposite" />
      <feColorMatrix type="matrix" values="0 0 0 0 0  0 0 0 0 0  0 0 0 0 0  0 0 0 0.349019607843137 0  " in="shadowComposite" />
    </filter>
    <g id="widget257">
      <path d="M 0 234.668079096045  L 0 50.495867768595  C 0 30.5888429752066  11.5 19.9152542372881  21.25 20  L 395.5 20  C 395.5 20  401.454923273737 19.1791928921929  406.5 13.9406779661016  C 411.891474533058 8.34248365757117  414 0.331920903954824  414 0.331920903954824  L 414 184  C 414 195  406.5 204.463276836158  395.5 204  L 27.25 204  C 27.25 204  18.5010912462038 204.560679862786  11.5 211.765536723164  C 2.79960635473379 220.719153900639  0 234.668079096045  0 234.668079096045  Z " fill-rule="nonzero" fill="#f2f2f2" stroke="none" transform="matrix(1 0 0 1 4 275 )" />
      <path d="M 0 234.668079096045  L 0 50.495867768595  C 0 30.5888429752066  11.5 19.9152542372881  21.25 20  L 395.5 20  C 395.5 20  401.454923273737 19.1791928921929  406.5 13.9406779661016  C 411.891474533058 8.34248365757117  414 0.331920903954824  414 0.331920903954824  L 414 184  C 414 195  406.5 204.463276836158  395.5 204  L 27.25 204  C 27.25 204  18.5010912462038 204.560679862786  11.5 211.765536723164  C 2.79960635473379 220.719153900639  0 234.668079096045  0 234.668079096045  Z " stroke-width="2" stroke="#f2f2f2" fill="none" transform="matrix(1 0 0 1 4 275 )" mask="url(#clip255)" />
    </g>
  </defs>
  <g transform="matrix(1 0 0 1 1 -272 )">
    <use xlink:href="#widget257" filter="url(#filter256)" />
    <use xlink:href="#widget257" />
  </g>
</svg>