<?xml version="1.0" encoding="utf-8"?>
<svg version="1.1" xmlns:xlink="http://www.w3.org/1999/xlink" width="425px" height="372px" xmlns="http://www.w3.org/2000/svg">
  <defs>
    <mask fill="white" id="clip261">
      <path d="M 414.00479616307 362  L 414.00479616307 81.2231404958678  C 414.00479616307 49.202479338843  414.00479616307 27.536231884058  414.00479616307 27.536231884058  L 18.5002143212966 32.0338983050847  C 18.5002143212966 32.0338983050847  12.545222060161 30.8499358010593  7.50008688701212 22.4237288135593  C 2.10854989407227 13.4189737130294  0 0.533898305084778  0 0.533898305084778  L 0 307.525423728814  C 0 319.484745762712  9.89993512436434 328.881355932203  15.5 328  L 380.665467625899 328  C 380.665467625899 328  395.597738282534 328.924500223184  405.047961630695 338.5  C 414.08311781588 347.654930296072  414.00479616307 362  414.00479616307 362  Z " fill-rule="evenodd" />
    </mask>
    <filter x="-1px" y="-3px" width="425px" height="372px" filterUnits="userSpaceOnUse" id="filter262">
      <feOffset dx="0" dy="2" in="SourceAlpha" result="shadowOffsetInner" />
      <feGaussianBlur stdDeviation="2.5" in="shadowOffsetInner" result="shadowGaussian" />
      <feComposite in2="shadowGaussian" operator="atop" in="SourceAlpha" result="shadowComposite" />
      <feColorMatrix type="matrix" values="0 0 0 0 0  0 0 0 0 0  0 0 0 0 0  0 0 0 0.349019607843137 0  " in="shadowComposite" />
    </filter>
    <g id="widget263">
      <path d="M 414.00479616307 362  L 414.00479616307 81.2231404958678  C 414.00479616307 49.202479338843  414.00479616307 27.536231884058  414.00479616307 27.536231884058  L 18.5002143212966 32.0338983050847  C 18.5002143212966 32.0338983050847  12.545222060161 30.8499358010593  7.50008688701212 22.4237288135593  C 2.10854989407227 13.4189737130294  0 0.533898305084778  0 0.533898305084778  L 0 307.525423728814  C 0 319.484745762712  9.89993512436434 328.881355932203  15.5 328  L 380.665467625899 328  C 380.665467625899 328  395.597738282534 328.924500223184  405.047961630695 338.5  C 414.08311781588 347.654930296072  414.00479616307 362  414.00479616307 362  Z " fill-rule="nonzero" fill="#ffffff" stroke="none" transform="matrix(1 0 0 1 4 0 )" />
      <path d="M 414.00479616307 362  L 414.00479616307 81.2231404958678  C 414.00479616307 49.202479338843  414.00479616307 27.536231884058  414.00479616307 27.536231884058  L 18.5002143212966 32.0338983050847  C 18.5002143212966 32.0338983050847  12.545222060161 30.8499358010593  7.50008688701212 22.4237288135593  C 2.10854989407227 13.4189737130294  0 0.533898305084778  0 0.533898305084778  L 0 307.525423728814  C 0 319.484745762712  9.89993512436434 328.881355932203  15.5 328  L 380.665467625899 328  C 380.665467625899 328  395.597738282534 328.924500223184  405.047961630695 338.5  C 414.08311781588 347.654930296072  414.00479616307 362  414.00479616307 362  Z " stroke-width="2" stroke="#ffffff" fill="none" transform="matrix(1 0 0 1 4 0 )" mask="url(#clip261)" />
    </g>
  </defs>
  <g transform="matrix(1 0 0 1 1 3 )">
    <use xlink:href="#widget263" filter="url(#filter262)" />
    <use xlink:href="#widget263" />
  </g>
</svg>