<?xml version="1.0" encoding="utf-8"?>
<svg version="1.1" xmlns:xlink="http://www.w3.org/1999/xlink" width="367px" height="770px" xmlns="http://www.w3.org/2000/svg">
  <defs>
    <mask fill="white" id="clip31">
      <path d="M 0 736  L 0 0  L 170.494252873563 0  L 333 0  L 333 736  L 0 736  Z " fill-rule="evenodd" />
    </mask>
    <filter x="-12px" y="-17px" width="367px" height="770px" filterUnits="userSpaceOnUse" id="filter32">
      <feOffset dx="4" dy="0" in="SourceAlpha" result="shadowOffsetInner" />
      <feGaussianBlur stdDeviation="8.5" in="shadowOffsetInner" result="shadowGaussian" />
      <feComposite in2="shadowGaussian" operator="atop" in="SourceAlpha" result="shadowComposite" />
      <feColorMatrix type="matrix" values="0 0 0 0 0  0 0 0 0 0  0 0 0 0 0  0 0 0 0.349019607843137 0  " in="shadowComposite" />
    </filter>
    <g id="widget33">
      <path d="M 0 736  L 0 0  L 170.494252873563 0  L 333 0  L 333 736  L 0 736  Z " fill-rule="nonzero" fill="#ffffff" stroke="none" transform="matrix(1 0 0 1 1 0 )" />
      <path d="M 0 736  L 0 0  L 170.494252873563 0  L 333 0  L 333 736  L 0 736  Z " stroke-width="2" stroke="#ffffff" fill="none" transform="matrix(1 0 0 1 1 0 )" mask="url(#clip31)" />
    </g>
  </defs>
  <g transform="matrix(1 0 0 1 12 17 )">
    <use xlink:href="#widget33" filter="url(#filter32)" />
    <use xlink:href="#widget33" />
  </g>
</svg>