<?xml version="1.0" encoding="utf-8"?>
<svg version="1.1" xmlns:xlink="http://www.w3.org/1999/xlink" width="344px" height="226px" xmlns="http://www.w3.org/2000/svg">
  <defs>
    <mask fill="white" id="clip35">
      <path d="M 0 215.25  L 0 197.5  L 0 0  L 334 0  L 334 173  C 334 189.8  320.8 203  304 203  L 12.25 203  C 12.25 203  7.72233074648611 203.235338507028  4.5 206.25  C 0.641767448941385 209.859581392379  0 215.25  0 215.25  Z " fill-rule="evenodd" />
    </mask>
    <filter x="-3px" y="-3px" width="344px" height="226px" filterUnits="userSpaceOnUse" id="filter36">
      <feOffset dx="2" dy="2" in="SourceAlpha" result="shadowOffsetInner" />
      <feGaussianBlur stdDeviation="2.5" in="shadowOffsetInner" result="shadowGaussian" />
      <feComposite in2="shadowGaussian" operator="atop" in="SourceAlpha" result="shadowComposite" />
      <feColorMatrix type="matrix" values="0 0 0 0 0.333333333333333  0 0 0 0 0.333333333333333  0 0 0 0 0.333333333333333  0 0 0 0.192156862745098 0  " in="shadowComposite" />
    </filter>
    <g id="widget37">
      <path d="M 0 215.25  L 0 197.5  L 0 0  L 334 0  L 334 173  C 334 189.8  320.8 203  304 203  L 12.25 203  C 12.25 203  7.72233074648611 203.235338507028  4.5 206.25  C 0.641767448941385 209.859581392379  0 215.25  0 215.25  Z " fill-rule="nonzero" fill="#333333" stroke="none" fill-opacity="0.576470588235294" />
      <path d="M 0 215.25  L 0 197.5  L 0 0  L 334 0  L 334 173  C 334 189.8  320.8 203  304 203  L 12.25 203  C 12.25 203  7.72233074648611 203.235338507028  4.5 206.25  C 0.641767448941385 209.859581392379  0 215.25  0 215.25  Z " stroke-width="2" stroke="#7f7f7f" fill="none" stroke-opacity="0.286274509803922" mask="url(#clip35)" />
    </g>
  </defs>
  <g transform="matrix(1 0 0 1 3 3 )">
    <use xlink:href="#widget37" filter="url(#filter36)" />
    <use xlink:href="#widget37" />
  </g>
</svg>