<?xml version="1.0" encoding="utf-8"?>
<svg version="1.1" xmlns:xlink="http://www.w3.org/1999/xlink" width="5px" height="5px" xmlns="http://www.w3.org/2000/svg">
  <g transform="matrix(1 0 0 1 -152 -183 )">
    <path d="M 154.5 183  C 155.9 183  157 184.1  157 185.5  C 157 186.9  155.9 188  154.5 188  C 153.1 188  152 186.9  152 185.5  C 152 184.1  153.1 183  154.5 183  Z " fill-rule="nonzero" fill="#ffffff" stroke="none" fill-opacity="0" />
    <path d="M 154.5 183.5  C 155.62 183.5  156.5 184.38  156.5 185.5  C 156.5 186.62  155.62 187.5  154.5 187.5  C 153.38 187.5  152.5 186.62  152.5 185.5  C 152.5 184.38  153.38 183.5  154.5 183.5  Z " stroke-width="1" stroke="#aaaaaa" fill="none" />
  </g>
</svg>