<?xml version="1.0" encoding="utf-8"?>
<svg version="1.1" xmlns:xlink="http://www.w3.org/1999/xlink" width="424px" height="89px" xmlns="http://www.w3.org/2000/svg">
  <defs>
    <mask fill="white" id="clip111">
      <path d="M 0 79  L 0 0  L 414 0  L 414 46  C 414 57.2  405.2 66  394 66  L 16.25 66  C 16.25 66  10.489443248664 65.9558815229486  6 69.5  C 1.34268047739397 73.176645690646  0 79  0 79  Z " fill-rule="evenodd" />
    </mask>
    <filter x="-5px" y="-4px" width="424px" height="89px" filterUnits="userSpaceOnUse" id="filter112">
      <feOffset dx="0" dy="1" in="SourceAlpha" result="shadowOffsetInner" />
      <feGaussianBlur stdDeviation="2.5" in="shadowOffsetInner" result="shadowGaussian" />
      <feComposite in2="shadowGaussian" operator="atop" in="SourceAlpha" result="shadowComposite" />
      <feColorMatrix type="matrix" values="0 0 0 0 0  0 0 0 0 0  0 0 0 0 0  0 0 0 0.0823529411764706 0  " in="shadowComposite" />
    </filter>
    <g id="widget113">
      <path d="M 0 79  L 0 0  L 414 0  L 414 46  C 414 57.2  405.2 66  394 66  L 16.25 66  C 16.25 66  10.489443248664 65.9558815229486  6 69.5  C 1.34268047739397 73.176645690646  0 79  0 79  Z " fill-rule="nonzero" fill="#ffffff" stroke="none" />
      <path d="M 0 79  L 0 0  L 414 0  L 414 46  C 414 57.2  405.2 66  394 66  L 16.25 66  C 16.25 66  10.489443248664 65.9558815229486  6 69.5  C 1.34268047739397 73.176645690646  0 79  0 79  Z " stroke-width="2" stroke="#ffffff" fill="none" mask="url(#clip111)" />
    </g>
  </defs>
  <g transform="matrix(1 0 0 1 5 4 )">
    <use xlink:href="#widget113" filter="url(#filter112)" />
    <use xlink:href="#widget113" />
  </g>
</svg>