<?xml version="1.0" encoding="utf-8"?>
<svg version="1.1" xmlns:xlink="http://www.w3.org/1999/xlink" width="425px" height="486px" xmlns="http://www.w3.org/2000/svg">
  <defs>
    <mask fill="white" id="clip85">
      <path d="M 414.00479616307 476  L 414.00479616307 195.223140495868  C 414.00479616307 163.202479338843  414.00479616307 0  414.00479616307 0  L 0 0  L 0 421.525423728814  C 0 433.484745762712  9.89993512436439 442.881355932203  15.5000000000001 442  L 380.665467625899 442  C 380.665467625899 442  395.597738282534 442.924500223184  405.047961630695 452.5  C 414.08311781588 461.654930296072  414.00479616307 476  414.00479616307 476  Z " fill-rule="evenodd" />
    </mask>
    <filter x="-5px" y="-2px" width="425px" height="486px" filterUnits="userSpaceOnUse" id="filter86">
      <feOffset dx="0" dy="2" in="SourceAlpha" result="shadowOffsetInner" />
      <feGaussianBlur stdDeviation="2.5" in="shadowOffsetInner" result="shadowGaussian" />
      <feComposite in2="shadowGaussian" operator="atop" in="SourceAlpha" result="shadowComposite" />
      <feColorMatrix type="matrix" values="0 0 0 0 0  0 0 0 0 0  0 0 0 0 0  0 0 0 0.349019607843137 0  " in="shadowComposite" />
    </filter>
    <g id="widget87">
      <path d="M 414.00479616307 476  L 414.00479616307 195.223140495868  C 414.00479616307 163.202479338843  414.00479616307 0  414.00479616307 0  L 0 0  L 0 421.525423728814  C 0 433.484745762712  9.89993512436439 442.881355932203  15.5000000000001 442  L 380.665467625899 442  C 380.665467625899 442  395.597738282534 442.924500223184  405.047961630695 452.5  C 414.08311781588 461.654930296072  414.00479616307 476  414.00479616307 476  Z " fill-rule="nonzero" fill="#ffffff" stroke="none" transform="matrix(1 0 0 1 0 1 )" />
      <path d="M 414.00479616307 476  L 414.00479616307 195.223140495868  C 414.00479616307 163.202479338843  414.00479616307 0  414.00479616307 0  L 0 0  L 0 421.525423728814  C 0 433.484745762712  9.89993512436439 442.881355932203  15.5000000000001 442  L 380.665467625899 442  C 380.665467625899 442  395.597738282534 442.924500223184  405.047961630695 452.5  C 414.08311781588 461.654930296072  414.00479616307 476  414.00479616307 476  Z " stroke-width="2" stroke="#ffffff" fill="none" transform="matrix(1 0 0 1 0 1 )" mask="url(#clip85)" />
    </g>
  </defs>
  <g transform="matrix(1 0 0 1 5 2 )">
    <use xlink:href="#widget87" filter="url(#filter86)" />
    <use xlink:href="#widget87" />
  </g>
</svg>