<?xml version="1.0" encoding="utf-8"?>
<svg version="1.1" xmlns:xlink="http://www.w3.org/1999/xlink" width="121px" height="171px" xmlns="http://www.w3.org/2000/svg">
  <defs>
    <mask fill="white" id="clip92">
      <path d="M 0 156  L 0 5  C 0 2.2  2.2 0  5 0  L 59.7619047619048 0  L 106 0  C 108.8 0  111 2.2  111 5  L 111 156  C 111 158.8  108.8 161  106 161  L 5 161  C 2.2 161  0 158.8  0 156  Z " fill-rule="evenodd" />
    </mask>
    <filter x="-3px" y="8px" width="121px" height="171px" filterUnits="userSpaceOnUse" id="filter93">
      <feOffset dx="2" dy="2" in="SourceAlpha" result="shadowOffsetInner" />
      <feGaussianBlur stdDeviation="2.5" in="shadowOffsetInner" result="shadowGaussian" />
      <feComposite in2="shadowGaussian" operator="atop" in="SourceAlpha" result="shadowComposite" />
      <feColorMatrix type="matrix" values="0 0 0 0 0.333333333333333  0 0 0 0 0.333333333333333  0 0 0 0 0.333333333333333  0 0 0 0.223529411764706 0  " in="shadowComposite" />
    </filter>
    <g id="widget94">
      <path d="M 0 156  L 0 5  C 0 2.2  2.2 0  5 0  L 59.7619047619048 0  L 106 0  C 108.8 0  111 2.2  111 5  L 111 156  C 111 158.8  108.8 161  106 161  L 5 161  C 2.2 161  0 158.8  0 156  Z " fill-rule="nonzero" fill="#ffffff" stroke="none" transform="matrix(1 0 0 1 0 11 )" />
      <path d="M 0 156  L 0 5  C 0 2.2  2.2 0  5 0  L 59.7619047619048 0  L 106 0  C 108.8 0  111 2.2  111 5  L 111 156  C 111 158.8  108.8 161  106 161  L 5 161  C 2.2 161  0 158.8  0 156  Z " stroke-width="2" stroke="#ffffff" fill="none" transform="matrix(1 0 0 1 0 11 )" mask="url(#clip92)" />
    </g>
  </defs>
  <g transform="matrix(1 0 0 1 3 -8 )">
    <use xlink:href="#widget94" filter="url(#filter93)" />
    <use xlink:href="#widget94" />
  </g>
</svg>