<?xml version="1.0" encoding="utf-8"?>
<svg version="1.1" xmlns:xlink="http://www.w3.org/1999/xlink" width="13px" height="13px" xmlns="http://www.w3.org/2000/svg">
  <g transform="matrix(1 0 0 1 -724 -160 )">
    <path d="M 730.5 163  C 732.46 163  734 164.54  734 166.5  C 734 168.46  732.46 170  730.5 170  C 728.54 170  727 168.46  727 166.5  C 727 164.54  728.54 163  730.5 163  Z " fill-rule="nonzero" fill="#ffffff" stroke="none" fill-opacity="0" />
    <path d="M 730.5 162  C 733.02 162  735 163.98  735 166.5  C 735 169.02  733.02 171  730.5 171  C 727.98 171  726 169.02  726 166.5  C 726 163.98  727.98 162  730.5 162  Z " stroke-width="4" stroke="#aaaaaa" fill="none" />
  </g>
</svg>