<?xml version="1.0" encoding="utf-8"?>
<svg version="1.1" xmlns:xlink="http://www.w3.org/1999/xlink" width="17px" height="17px" xmlns="http://www.w3.org/2000/svg">
  <g transform="matrix(1 0 0 1 -576 -137 )">
    <path d="M 584.5 140  C 587.58 140  590 142.42  590 145.5  C 590 148.58  587.58 151  584.5 151  C 581.42 151  579 148.58  579 145.5  C 579 142.42  581.42 140  584.5 140  Z " fill-rule="nonzero" fill="#ffffff" stroke="none" fill-opacity="0" />
    <path d="M 584.5 139  C 588.14 139  591 141.86  591 145.5  C 591 149.14  588.14 152  584.5 152  C 580.86 152  578 149.14  578 145.5  C 578 141.86  580.86 139  584.5 139  Z " stroke-width="4" stroke="#aaaaaa" fill="none" />
  </g>
</svg>