<?xml version="1.0" encoding="utf-8"?>
<svg version="1.1" xmlns:xlink="http://www.w3.org/1999/xlink" width="17px" height="17px" xmlns="http://www.w3.org/2000/svg">
  <defs>
    <mask fill="white" id="clip208">
      <path d="M 0 8.5  C 0 13.26  3.74 17  8.5 17  C 13.26 17  17 13.26  17 8.5  C 17 3.74  13.26 0  8.5 0  C 3.74 0  0 3.74  0 8.5  Z " fill-rule="evenodd" />
    </mask>
  </defs>
  <g transform="matrix(1 0 0 1 -1321 -137 )">
    <path d="M 0 8.5  C 0 13.26  3.74 17  8.5 17  C 13.26 17  17 13.26  17 8.5  C 17 3.74  13.26 0  8.5 0  C 3.74 0  0 3.74  0 8.5  Z " fill-rule="nonzero" fill="#ffffff" stroke="none" fill-opacity="0" transform="matrix(1 0 0 1 1321 137 )" />
    <path d="M 0 8.5  C 0 13.26  3.74 17  8.5 17  C 13.26 17  17 13.26  17 8.5  C 17 3.74  13.26 0  8.5 0  C 3.74 0  0 3.74  0 8.5  Z " stroke-width="8" stroke="#aaaaaa" fill="none" transform="matrix(1 0 0 1 1321 137 )" mask="url(#clip208)" />
  </g>
</svg>