<?xml version="1.0" encoding="utf-8"?>
<svg version="1.1" xmlns:xlink="http://www.w3.org/1999/xlink" width="25px" height="25px" xmlns="http://www.w3.org/2000/svg">
  <defs>
    <mask fill="white" id="clip209">
      <path d="M 0 12.5  C 0 19.5  5.5 25  12.5 25  C 19.5 25  25 19.5  25 12.5  C 25 5.5  19.5 0  12.5 0  C 5.5 0  0 5.5  0 12.5  Z " fill-rule="evenodd" />
    </mask>
  </defs>
  <g transform="matrix(1 0 0 1 -1446 -121 )">
    <path d="M 0 12.5  C 0 19.5  5.5 25  12.5 25  C 19.5 25  25 19.5  25 12.5  C 25 5.5  19.5 0  12.5 0  C 5.5 0  0 5.5  0 12.5  Z " fill-rule="nonzero" fill="#ffffff" stroke="none" fill-opacity="0" transform="matrix(1 0 0 1 1446 121 )" />
    <path d="M 0 12.5  C 0 19.5  5.5 25  12.5 25  C 19.5 25  25 19.5  25 12.5  C 25 5.5  19.5 0  12.5 0  C 5.5 0  0 5.5  0 12.5  Z " stroke-width="8" stroke="#aaaaaa" fill="none" transform="matrix(1 0 0 1 1446 121 )" mask="url(#clip209)" />
  </g>
</svg>