<?xml version="1.0" encoding="utf-8"?>
<svg version="1.1" xmlns:xlink="http://www.w3.org/1999/xlink" width="39px" height="39px" xmlns="http://www.w3.org/2000/svg">
  <defs>
    <mask fill="white" id="clip211">
      <path d="M 0 19.5  C 0 30.42  8.58 39  19.5 39  C 30.42 39  39 30.42  39 19.5  C 39 8.58  30.42 0  19.5 0  C 8.58 0  0 8.58  0 19.5  Z " fill-rule="evenodd" />
    </mask>
  </defs>
  <g transform="matrix(1 0 0 1 -1601 -94 )">
    <path d="M 0 19.5  C 0 30.42  8.58 39  19.5 39  C 30.42 39  39 30.42  39 19.5  C 39 8.58  30.42 0  19.5 0  C 8.58 0  0 8.58  0 19.5  Z " fill-rule="nonzero" fill="#ffffff" stroke="none" fill-opacity="0" transform="matrix(1 0 0 1 1601 94 )" />
    <path d="M 0 19.5  C 0 30.42  8.58 39  19.5 39  C 30.42 39  39 30.42  39 19.5  C 39 8.58  30.42 0  19.5 0  C 8.58 0  0 8.58  0 19.5  Z " stroke-width="8" stroke="#aaaaaa" fill="none" transform="matrix(1 0 0 1 1601 94 )" mask="url(#clip211)" />
  </g>
</svg>