<?xml version="1.0" encoding="utf-8"?>
<svg version="1.1" xmlns:xlink="http://www.w3.org/1999/xlink" width="13px" height="13px" xmlns="http://www.w3.org/2000/svg">
  <defs>
    <mask fill="white" id="clip210">
      <path d="M 0 6.5  C 0 10.14  2.86 13  6.5 13  C 10.14 13  13 10.14  13 6.5  C 13 2.86  10.14 0  6.5 0  C 2.86 0  0 2.86  0 6.5  Z " fill-rule="evenodd" />
    </mask>
  </defs>
  <g transform="matrix(1 0 0 1 -1305 -160 )">
    <path d="M 0 6.5  C 0 10.14  2.86 13  6.5 13  C 10.14 13  13 10.14  13 6.5  C 13 2.86  10.14 0  6.5 0  C 2.86 0  0 2.86  0 6.5  Z " fill-rule="nonzero" fill="#ffffff" stroke="none" fill-opacity="0" transform="matrix(1 0 0 1 1305 160 )" />
    <path d="M 0 6.5  C 0 10.14  2.86 13  6.5 13  C 10.14 13  13 10.14  13 6.5  C 13 2.86  10.14 0  6.5 0  C 2.86 0  0 2.86  0 6.5  Z " stroke-width="8" stroke="#aaaaaa" fill="none" transform="matrix(1 0 0 1 1305 160 )" mask="url(#clip210)" />
  </g>
</svg>