<?xml version="1.0" encoding="utf-8"?>
<svg version="1.1" xmlns:xlink="http://www.w3.org/1999/xlink" width="57px" height="62px" xmlns="http://www.w3.org/2000/svg">
  <defs>
    <linearGradient gradientUnits="userSpaceOnUse" x1="24.4021671826625" y1="0" x2="24.4021671826625" y2="49.7310221159593" id="LinearGradient212">
      <stop id="Stop213" stop-color="#f4b242" offset="0" />
      <stop id="Stop214" stop-color="#facd91" offset="1" />
    </linearGradient>
    <filter x="299px" y="78px" width="57px" height="62px" filterUnits="userSpaceOnUse" id="filter215">
      <feOffset dx="2" dy="2" in="SourceAlpha" result="shadowOffsetInner" />
      <feGaussianBlur stdDeviation="2.5" in="shadowOffsetInner" result="shadowGaussian" />
      <feComposite in2="shadowGaussian" operator="atop" in="SourceAlpha" result="shadowComposite" />
      <feColorMatrix type="matrix" values="0 0 0 0 0.2  0 0 0 0 0.2  0 0 0 0 0.2  0 0 0 0.192156862745098 0  " in="shadowComposite" />
    </filter>
    <g id="widget216">
      <path d="M 0 32  L 0 10  C 0 4.4  4.4 0  10 0  L 37 0  C 42.6 0  47 4.4  47 10  L 47 32  C 47 37.6  42.6 42  37 42  L 29 42  L 23 51.75  L 16.5 42  L 10 42  C 4.4 42  0 37.6  0 32  Z " fill-rule="nonzero" fill="url(#LinearGradient212)" stroke="none" transform="matrix(1 0 0 1 302 81 )" />
    </g>
  </defs>
  <g transform="matrix(1 0 0 1 -299 -78 )">
    <use xlink:href="#widget216" filter="url(#filter215)" />
    <use xlink:href="#widget216" />
  </g>
</svg>