<?xml version="1.0" encoding="utf-8"?>
<svg version="1.1" xmlns:xlink="http://www.w3.org/1999/xlink" width="343px" height="252px" xmlns="http://www.w3.org/2000/svg">
  <defs>
    <linearGradient gradientUnits="userSpaceOnUse" x1="177" y1="-5.12169312169312" x2="177" y2="250.962962962963" id="LinearGradient234">
      <stop id="Stop235" stop-color="#ffb660" offset="0" />
      <stop id="Stop236" stop-color="#ffe2b5" offset="1" />
    </linearGradient>
    <linearGradient gradientUnits="userSpaceOnUse" x1="177" y1="-5.12169312169312" x2="177" y2="250.962962962963" id="LinearGradient237">
      <stop id="Stop238" stop-color="#ffb660" offset="0" />
      <stop id="Stop239" stop-color="#ffe2b5" offset="1" />
    </linearGradient>
    <mask fill="white" id="clip240">
      <path d="M 7 234.75  C 4.27000000000001 232.02  0 232.5  0 232.5  L 0 0  L 333 0  L 333 232.5  C 333 232.5  328.16 232.09  325.5 234.75  C 322.84 237.41  323.5 242  323.5 242  L 9.75 242  C 9.75 242  9.66 237.41  7 234.75  Z " fill-rule="evenodd" />
    </mask>
    <filter x="-3px" y="-3px" width="343px" height="252px" filterUnits="userSpaceOnUse" id="filter241">
      <feOffset dx="2" dy="2" in="SourceAlpha" result="shadowOffsetInner" />
      <feGaussianBlur stdDeviation="2.5" in="shadowOffsetInner" result="shadowGaussian" />
      <feComposite in2="shadowGaussian" operator="atop" in="SourceAlpha" result="shadowComposite" />
      <feColorMatrix type="matrix" values="0 0 0 0 0.333333333333333  0 0 0 0 0.333333333333333  0 0 0 0 0.333333333333333  0 0 0 0.192156862745098 0  " in="shadowComposite" />
    </filter>
    <g id="widget242">
      <path d="M 7 234.75  C 4.27000000000001 232.02  0 232.5  0 232.5  L 0 0  L 333 0  L 333 232.5  C 333 232.5  328.16 232.09  325.5 234.75  C 322.84 237.41  323.5 242  323.5 242  L 9.75 242  C 9.75 242  9.66 237.41  7 234.75  Z " fill-rule="nonzero" fill="url(#LinearGradient234)" stroke="none" />
      <path d="M 7 234.75  C 4.27000000000001 232.02  0 232.5  0 232.5  L 0 0  L 333 0  L 333 232.5  C 333 232.5  328.16 232.09  325.5 234.75  C 322.84 237.41  323.5 242  323.5 242  L 9.75 242  C 9.75 242  9.66 237.41  7 234.75  Z " stroke-width="2" stroke="url(#LinearGradient237)" fill="none" mask="url(#clip240)" />
    </g>
  </defs>
  <g transform="matrix(1 0 0 1 3 3 )">
    <use xlink:href="#widget242" filter="url(#filter241)" />
    <use xlink:href="#widget242" />
  </g>
</svg>