<?xml version="1.0" encoding="utf-8"?>
<svg version="1.1" xmlns:xlink="http://www.w3.org/1999/xlink" width="181px" height="135px" xmlns="http://www.w3.org/2000/svg">
  <defs>
    <mask fill="white" id="clip59">
      <path d="M 3.5945945945946 121.255165289256  C 2.19270270270271 119.845041322314  0 120.092975206612  0 120.092975206612  L 0 0  L 171 0  L 171 120.092975206612  C 171 120.092975206612  168.514594594595 119.881198347107  167.148648648649 121.255165289256  C 165.782702702703 122.629132231405  166.121621621622 125  166.121621621622 125  L 5.00675675675676 125  C 5.00675675675676 125  4.96054054054054 122.629132231405  3.5945945945946 121.255165289256  Z " fill-rule="evenodd" />
    </mask>
    <filter x="27px" y="100px" width="181px" height="135px" filterUnits="userSpaceOnUse" id="filter60">
      <feOffset dx="2" dy="2" in="SourceAlpha" result="shadowOffsetInner" />
      <feGaussianBlur stdDeviation="2.5" in="shadowOffsetInner" result="shadowGaussian" />
      <feComposite in2="shadowGaussian" operator="atop" in="SourceAlpha" result="shadowComposite" />
      <feColorMatrix type="matrix" values="0 0 0 0 0.333333333333333  0 0 0 0 0.333333333333333  0 0 0 0 0.333333333333333  0 0 0 0.192156862745098 0  " in="shadowComposite" />
    </filter>
    <g id="widget61">
      <path d="M 3.5945945945946 121.255165289256  C 2.19270270270271 119.845041322314  0 120.092975206612  0 120.092975206612  L 0 0  L 171 0  L 171 120.092975206612  C 171 120.092975206612  168.514594594595 119.881198347107  167.148648648649 121.255165289256  C 165.782702702703 122.629132231405  166.121621621622 125  166.121621621622 125  L 5.00675675675676 125  C 5.00675675675676 125  4.96054054054054 122.629132231405  3.5945945945946 121.255165289256  Z " fill-rule="nonzero" fill="#000000" stroke="none" fill-opacity="0.486274509803922" transform="matrix(1 0 0 1 30 103 )" />
      <path d="M 3.5945945945946 121.255165289256  C 2.19270270270271 119.845041322314  0 120.092975206612  0 120.092975206612  L 0 0  L 171 0  L 171 120.092975206612  C 171 120.092975206612  168.514594594595 119.881198347107  167.148648648649 121.255165289256  C 165.782702702703 122.629132231405  166.121621621622 125  166.121621621622 125  L 5.00675675675676 125  C 5.00675675675676 125  4.96054054054054 122.629132231405  3.5945945945946 121.255165289256  Z " stroke-width="2" stroke="#333333" fill="none" transform="matrix(1 0 0 1 30 103 )" mask="url(#clip59)" />
    </g>
  </defs>
  <g transform="matrix(1 0 0 1 -27 -100 )">
    <use xlink:href="#widget61" filter="url(#filter60)" />
    <use xlink:href="#widget61" />
  </g>
</svg>