<?xml version="1.0" encoding="utf-8"?>
<svg version="1.1" xmlns:xlink="http://www.w3.org/1999/xlink" width="343px" height="91px" xmlns="http://www.w3.org/2000/svg">
  <defs>
    <mask fill="white" id="clip73">
      <path d="M 0 81  L 0 9.125  C 0 9.125  4.34 9.41  7 6.75  C 9.555 4.19499999999999  9.5 0  9.5 0  L 323.375 0  C 323.375 0  322.98718011094 4.23990182970806  325.25 6.75  C 327.945 9.73950641261467  333 9.125  333 9.125  L 333 81  L 0 81  Z " fill-rule="evenodd" />
    </mask>
    <filter x="38px" y="446px" width="343px" height="91px" filterUnits="userSpaceOnUse" id="filter74">
      <feOffset dx="2" dy="2" in="SourceAlpha" result="shadowOffsetInner" />
      <feGaussianBlur stdDeviation="2.5" in="shadowOffsetInner" result="shadowGaussian" />
      <feComposite in2="shadowGaussian" operator="atop" in="SourceAlpha" result="shadowComposite" />
      <feColorMatrix type="matrix" values="0 0 0 0 0.333333333333333  0 0 0 0 0.333333333333333  0 0 0 0 0.333333333333333  0 0 0 0.192156862745098 0  " in="shadowComposite" />
    </filter>
    <g id="widget75">
      <path d="M 0 81  L 0 9.125  C 0 9.125  4.34 9.41  7 6.75  C 9.555 4.19499999999999  9.5 0  9.5 0  L 323.375 0  C 323.375 0  322.98718011094 4.23990182970806  325.25 6.75  C 327.945 9.73950641261467  333 9.125  333 9.125  L 333 81  L 0 81  Z " fill-rule="nonzero" fill="#f2f2f2" stroke="none" transform="matrix(1 0 0 1 41 449 )" />
      <path d="M 0 81  L 0 9.125  C 0 9.125  4.34 9.41  7 6.75  C 9.555 4.19499999999999  9.5 0  9.5 0  L 323.375 0  C 323.375 0  322.98718011094 4.23990182970806  325.25 6.75  C 327.945 9.73950641261467  333 9.125  333 9.125  L 333 81  L 0 81  Z " stroke-width="2" stroke="#ffffff" fill="none" transform="matrix(1 0 0 1 41 449 )" mask="url(#clip73)" />
    </g>
  </defs>
  <g transform="matrix(1 0 0 1 -38 -446 )">
    <use xlink:href="#widget75" filter="url(#filter74)" />
    <use xlink:href="#widget75" />
  </g>
</svg>