<?xml version="1.0" encoding="utf-8"?>
<svg version="1.1" xmlns:xlink="http://www.w3.org/1999/xlink" width="343px" height="252px" xmlns="http://www.w3.org/2000/svg">
  <defs>
    <mask fill="white" id="clip78">
      <path d="M 7 234.75  C 4.27000000000001 232.02  0 232.5  0 232.5  L 0 0  L 333 0  L 333 232.5  C 333 232.5  328.16 232.09  325.5 234.75  C 322.84 237.41  323.5 242  323.5 242  L 9.75 242  C 9.75 242  9.66 237.41  7 234.75  Z " fill-rule="evenodd" />
    </mask>
    <filter x="38px" y="204px" width="343px" height="252px" filterUnits="userSpaceOnUse" id="filter79">
      <feOffset dx="2" dy="2" in="SourceAlpha" result="shadowOffsetInner" />
      <feGaussianBlur stdDeviation="2.5" in="shadowOffsetInner" result="shadowGaussian" />
      <feComposite in2="shadowGaussian" operator="atop" in="SourceAlpha" result="shadowComposite" />
      <feColorMatrix type="matrix" values="0 0 0 0 0.333333333333333  0 0 0 0 0.333333333333333  0 0 0 0 0.333333333333333  0 0 0 0.192156862745098 0  " in="shadowComposite" />
    </filter>
    <g id="widget80">
      <path d="M 7 234.75  C 4.27000000000001 232.02  0 232.5  0 232.5  L 0 0  L 333 0  L 333 232.5  C 333 232.5  328.16 232.09  325.5 234.75  C 322.84 237.41  323.5 242  323.5 242  L 9.75 242  C 9.75 242  9.66 237.41  7 234.75  Z " fill-rule="nonzero" fill="#000000" stroke="none" fill-opacity="0.486274509803922" transform="matrix(1 0 0 1 41 207 )" />
      <path d="M 7 234.75  C 4.27000000000001 232.02  0 232.5  0 232.5  L 0 0  L 333 0  L 333 232.5  C 333 232.5  328.16 232.09  325.5 234.75  C 322.84 237.41  323.5 242  323.5 242  L 9.75 242  C 9.75 242  9.66 237.41  7 234.75  Z " stroke-width="2" stroke="#333333" fill="none" transform="matrix(1 0 0 1 41 207 )" mask="url(#clip78)" />
    </g>
  </defs>
  <g transform="matrix(1 0 0 1 -38 -204 )">
    <use xlink:href="#widget80" filter="url(#filter79)" />
    <use xlink:href="#widget80" />
  </g>
</svg>